<?xml version="1.0" encoding="UTF-8"?>
<svg xmlns="http://www.w3.org/2000/svg" width="1600" height="920" viewBox="0 0 1600 920" role="img" aria-label="HMI layer frame">
<defs>
<linearGradient id="panelBg" x1="0" y1="0" x2="1" y2="1">
<stop offset="0%" stop-color="#0b2032"/>
<stop offset="100%" stop-color="#102b3f"/>
</linearGradient>
<linearGradient id="softBlue" x1="0" y1="0" x2="1" y2="0">
<stop offset="0%" stop-color="#5ef2ff"/>
<stop offset="100%" stop-color="#7da7ff"/>
</linearGradient>
<linearGradient id="softGreen" x1="0" y1="0" x2="1" y2="0">
<stop offset="0%" stop-color="#6df0c2"/>
<stop offset="100%" stop-color="#c6f36b"/>
</linearGradient>
<linearGradient id="softWarm" x1="0" y1="0" x2="1" y2="0">
<stop offset="0%" stop-color="#ffd166"/>
<stop offset="100%" stop-color="#ff8f70"/>
</linearGradient>
<filter id="panelShadow" x="-10%" y="-10%" width="120%" height="120%">
<feDropShadow dx="0" dy="10" stdDeviation="14" flood-color="#03101a" flood-opacity="0.32"/>
</filter>
</defs>
<rect width="1600" height="920" fill="none"/>
<g filter="url(#panelShadow)">
<rect x="58" y="56" width="1484" height="808" rx="30" fill="url(#panelBg)" stroke="#2b526d" stroke-width="2"/>
<text x="118" y="126" text-anchor="start" font-family="Inter, Arial, sans-serif" font-size="38" font-weight="800" fill="#f6fbff">HMI Operation Layer</text>
<text x="118" y="166" text-anchor="start" font-family="Inter, Arial, sans-serif" font-size="21" font-weight="400" fill="#bdd2df">FastAPI backend, React dashboard,</text>
<text x="118" y="196" text-anchor="start" font-family="Inter, Arial, sans-serif" font-size="21" font-weight="400" fill="#bdd2df">PostgreSQL control plane, MQTT publish.</text>
<rect x="128" y="234" width="872" height="500" rx="26" fill="#050d15" stroke="#5ef2ff" stroke-width="4"/>
<rect x="164" y="280" width="800" height="394" rx="12" fill="#0b1c2c" stroke="#223f56" stroke-width="2"/>
<rect x="164" y="280" width="800" height="52" rx="12" fill="#102f43"/>
<text x="196" y="314" text-anchor="start" font-family="Inter, Arial, sans-serif" font-size="20" font-weight="700" fill="#effcff">Device Detail / AI Recommendation / Ops Console</text>
<rect x="198" y="372" width="360" height="210" rx="14" fill="#112c40" stroke="#5ef2ff" stroke-width="2"/>
<path d="M226 532 C270 472, 318 456, 368 492 S464 548, 526 420" stroke="#5ef2ff" stroke-width="5" fill="none"/>
<path d="M226 542 C284 520, 338 516, 394 526 S474 548, 526 502" stroke="#6df0c2" stroke-width="4" fill="none"/>
<text x="234" y="406" text-anchor="start" font-family="Inter, Arial, sans-serif" font-size="18" font-weight="700" fill="#effcff">Temperature Trend</text>
<rect x="600" y="372" width="330" height="92" rx="14" fill="#112c40" stroke="#6df0c2" stroke-width="2"/>
<text x="626" y="410" text-anchor="start" font-family="Inter, Arial, sans-serif" font-size="18" font-weight="700" fill="#effcff">Parameter Apply</text>
<text x="626" y="438" text-anchor="start" font-family="Inter, Arial, sans-serif" font-size="16" font-weight="400" fill="#bcd2df">review -&gt; confirm -&gt; ACK</text>
<rect x="600" y="490" width="330" height="92" rx="14" fill="#112c40" stroke="#ffd166" stroke-width="2"/>
<text x="626" y="528" text-anchor="start" font-family="Inter, Arial, sans-serif" font-size="18" font-weight="700" fill="#effcff">AI Validation</text>
<text x="626" y="556" text-anchor="start" font-family="Inter, Arial, sans-serif" font-size="16" font-weight="400" fill="#bcd2df">preview vs actual effect</text>
<rect x="470" y="734" width="190" height="32" rx="16" fill="#132e43" stroke="#2b526d"/>
<rect x="524" y="766" width="82" height="18" rx="9" fill="#132e43" stroke="#2b526d"/>
<rect x="1060" y="246" width="390" height="132" rx="18" fill="#0e2638" stroke="#5ef2ff" stroke-width="2"/>
<rect x="1078" y="264" width="42" height="42" rx="12" fill="#5ef2ff" fill-opacity="0.18" stroke="#5ef2ff" stroke-width="2"/>
<circle cx="1099" cy="285" r="8" fill="#5ef2ff"/>
<text x="1134" y="291" text-anchor="start" font-family="Inter, Arial, sans-serif" font-size="22" font-weight="700" fill="#f6fbff">FastAPI Backend</text>
<text x="1084" y="334" text-anchor="start" font-family="Inter, Arial, sans-serif" font-size="16" font-weight="400" fill="#bdd2df">Auth, devices, params</text>
<text x="1084" y="358" text-anchor="start" font-family="Inter, Arial, sans-serif" font-size="16" font-weight="400" fill="#bdd2df">AI validation APIs</text>
<rect x="1060" y="416" width="390" height="132" rx="18" fill="#0e2638" stroke="#6df0c2" stroke-width="2"/>
<rect x="1078" y="434" width="42" height="42" rx="12" fill="#6df0c2" fill-opacity="0.18" stroke="#6df0c2" stroke-width="2"/>
<circle cx="1099" cy="455" r="8" fill="#6df0c2"/>
<text x="1134" y="461" text-anchor="start" font-family="Inter, Arial, sans-serif" font-size="22" font-weight="700" fill="#f6fbff">React Frontend</text>
<text x="1084" y="504" text-anchor="start" font-family="Inter, Arial, sans-serif" font-size="16" font-weight="400" fill="#bdd2df">Operator dashboard</text>
<text x="1084" y="528" text-anchor="start" font-family="Inter, Arial, sans-serif" font-size="16" font-weight="400" fill="#bdd2df">Real screenshots fit here</text>
<rect x="1060" y="586" width="390" height="132" rx="18" fill="#0e2638" stroke="#ffd166" stroke-width="2"/>
<rect x="1078" y="604" width="42" height="42" rx="12" fill="#ffd166" fill-opacity="0.18" stroke="#ffd166" stroke-width="2"/>
<circle cx="1099" cy="625" r="8" fill="#ffd166"/>
<text x="1134" y="631" text-anchor="start" font-family="Inter, Arial, sans-serif" font-size="22" font-weight="700" fill="#f6fbff">Control Plane</text>
<text x="1084" y="674" text-anchor="start" font-family="Inter, Arial, sans-serif" font-size="16" font-weight="400" fill="#bdd2df">PostgreSQL records</text>
<text x="1084" y="698" text-anchor="start" font-family="Inter, Arial, sans-serif" font-size="16" font-weight="400" fill="#bdd2df">MQTT publish path</text>
<rect x="118" y="792" width="1364" height="34" rx="17" fill="#071723" stroke="#2b526d" stroke-width="1"/>
<text x="800" y="816" text-anchor="middle" font-family="Inter, Arial, sans-serif" font-size="18" font-weight="700" fill="#d8e8f2">The final poster places real HMI PNG screenshots inside this monitor/tablet visual language.</text>
</g>
</svg>